<svg width="24" height="24" fill="currentColor" viewBox="0 0 24 24" transform="" id="injected-svg"><!--Boxicons v3.0.6 https://boxicons.com | License  https://docs.boxicons.com/free--><path d="m20.5,5c-.83,0-1.5.67-1.5,1.5v4.5h-1v-6.5c0-.83-.67-1.5-1.5-1.5s-1.5.67-1.5,1.5v6.5h-1V3.5c0-.83-.67-1.5-1.5-1.5s-1.5.67-1.5,1.5v7.5h-1v-6.5c0-.83-.67-1.5-1.5-1.5s-1.5.67-1.5,1.5v11.81l-2.22-3.6c-.44-.71-1.36-.93-2.07-.49s-.93,1.36-.49,2.07l3.31,5.34c.91,1.47,2.52,2.37,4.25,2.37h7.22c2.76,0,5-2.24,5-5V6.5c0-.83-.67-1.5-1.5-1.5Z"></path></svg>